<svg xmlns="http://www.w3.org/2000/svg" xmlns:xlink="http://www.w3.org/1999/xlink" width="2000" zoomAndPan="magnify" viewBox="0 0 1500 1499.999933" height="2000" preserveAspectRatio="xMidYMid meet" version="1.0"><defs><g/><clipPath id="e3eb59fbf0"><path d="M 466.273438 473 L 722 473 L 722 680 L 466.273438 680 Z M 466.273438 473 " clip-rule="nonzero"/></clipPath><clipPath id="0629518b36"><path d="M 466.273438 540 L 714 540 L 714 700 L 466.273438 700 Z M 466.273438 540 " clip-rule="nonzero"/></clipPath><clipPath id="2ad6e1896b"><path d="M 516 546 L 1034.023438 546 L 1034.023438 831.839844 L 516 831.839844 Z M 516 546 " clip-rule="nonzero"/></clipPath><clipPath id="dec599ee5c"><rect x="0" width="965" y="0" height="137"/></clipPath><clipPath id="f7d0abaf3b"><rect x="0" width="644" y="0" height="80"/></clipPath></defs><rect x="-150" width="1800" fill="#ffffff" y="-149.999993" height="1799.99992" fill-opacity="1"/><rect x="-150" width="1800" fill="#ffffff" y="-149.999993" height="1799.99992" fill-opacity="1"/><path fill="#ffffff" d="M 809.972656 335.308594 L 813.171875 352.132812 L 830.003906 355.328125 L 813.171875 358.507812 L 809.972656 375.328125 L 806.792969 358.507812 L 789.957031 355.328125 L 806.792969 352.132812 Z M 809.972656 335.308594 " fill-opacity="1" fill-rule="nonzero"/><path fill="#c7672a" d="M 782.683594 665.015625 L 771.738281 610.398438 L 771.597656 610.316406 L 782.398438 665.179688 Z M 782.683594 665.015625 " fill-opacity="1" fill-rule="nonzero"/><path fill="#c7672a" d="M 757.636719 684.222656 C 756.109375 683.671875 754.519531 683.039062 752.847656 682.328125 C 754.519531 683.039062 756.128906 683.671875 757.636719 684.222656 Z M 757.636719 684.222656 " fill-opacity="1" fill-rule="nonzero"/><path fill="#ffecd3" d="M 751.808594 681.859375 L 712.925781 698.539062 L 712.3125 699.515625 L 620.585938 645.121094 L 574.304688 675.300781 L 563.828125 704.566406 C 563.828125 704.566406 563.828125 704.566406 563.828125 704.625 C 568.800781 705.929688 577.175781 705.910156 586.652344 696.480469 C 598.066406 685.136719 609.5 685.136719 614.492188 685.828125 C 616.386719 686.09375 618.304688 685.6875 619.996094 684.6875 C 627.128906 680.453125 632.34375 677.296875 632.34375 677.296875 C 643.472656 674.34375 640.109375 684.871094 639.925781 685.402344 C 638.703125 691.9375 621.320312 711.632812 612.351562 712.589844 C 602.835938 713.605469 583.800781 753.949219 570.472656 754.96875 C 557.144531 755.988281 534.300781 771.117188 534.300781 771.117188 L 517.121094 819.015625 L 752.828125 682.285156 C 752.480469 682.144531 752.132812 682 751.808594 681.839844 Z M 751.808594 681.859375 " fill-opacity="1" fill-rule="nonzero"/><g clip-path="url(#e3eb59fbf0)"><path fill="#74a574" d="M 713.515625 679.375 L 721.832031 581.480469 L 721.832031 573.414062 L 572.550781 473.996094 L 466.273438 540.222656 Z M 713.515625 679.375 " fill-opacity="1" fill-rule="nonzero"/></g><g clip-path="url(#0629518b36)"><path fill="#1e3837" d="M 712.925781 698.558594 L 711.84375 699.027344 L 713.515625 679.375 L 466.273438 540.222656 L 466.273438 563.4375 L 620.585938 645.121094 L 712.3125 699.515625 Z M 712.925781 698.558594 " fill-opacity="1" fill-rule="nonzero"/></g><path fill="#ffecd3" d="M 897.929688 730.796875 C 879.851562 709.617188 871.273438 704.566406 865.566406 698.515625 C 860.960938 693.628906 851.382812 688.089844 851.871094 685.585938 C 851.871094 684.789062 851.789062 673.570312 865.566406 681.347656 C 865.566406 681.347656 883.988281 676.746094 908.097656 703.769531 L 907.445312 693.464844 L 896.035156 671.269531 L 870.050781 654.589844 L 797.988281 695.136719 C 797.988281 695.136719 801.820312 709.59375 801.820312 709.59375 L 971.113281 804.027344 L 971.253906 803.414062 L 948.410156 760.039062 C 948.410156 760.039062 916.046875 751.972656 897.96875 730.773438 Z M 897.929688 730.796875 " fill-opacity="1" fill-rule="nonzero"/><g clip-path="url(#2ad6e1896b)"><path fill="#1e3837" d="M 793.730469 687.765625 L 797.949219 695.15625 L 870.007812 654.609375 L 1034.023438 562.316406 L 1030.210938 546.167969 L 787.371094 683.914062 L 787.492188 684.382812 C 787.492188 684.382812 780.523438 692.589844 757.617188 684.199219 C 756.089844 683.652344 754.5 683.019531 752.828125 682.304688 L 517.121094 819.035156 L 516.203125 819.566406 L 516.203125 821.582031 L 526.675781 831.660156 L 721.808594 722.710938 L 756.066406 719.675781 L 783.417969 703.382812 L 780.828125 695.460938 L 793.707031 687.742188 Z M 793.730469 687.765625 " fill-opacity="1" fill-rule="nonzero"/></g><path fill="#1e3837" d="M 782.398438 665.179688 L 783.640625 669.882812 L 782.683594 665.015625 Z M 782.398438 665.179688 " fill-opacity="1" fill-rule="nonzero"/><path fill="#74a574" d="M 783.640625 669.882812 L 787.390625 683.914062 L 1030.230469 546.167969 L 922.667969 472.527344 L 763.710938 570.382812 L 771.738281 610.398438 L 782.683594 665.015625 Z M 783.640625 669.882812 " fill-opacity="1" fill-rule="nonzero"/><path fill="#ffecd3" d="M 711.84375 699.027344 L 712.925781 698.558594 L 751.808594 681.878906 C 752.15625 682.019531 752.5 682.183594 752.828125 682.328125 C 754.5 683.039062 756.089844 683.671875 757.617188 684.222656 C 780.523438 692.589844 787.492188 684.402344 787.492188 684.402344 L 787.371094 683.9375 L 783.640625 669.882812 L 782.398438 665.179688 L 771.597656 610.335938 L 764.179688 572.722656 C 737.523438 568.488281 721.832031 581.5 721.832031 581.5 L 713.515625 679.394531 L 711.84375 699.046875 Z M 711.84375 699.027344 " fill-opacity="1" fill-rule="nonzero"/><path fill="#1e3837" d="M 865.566406 681.371094 C 851.789062 673.589844 851.851562 684.8125 851.871094 685.605469 C 851.992188 685.015625 852.6875 684.585938 854.152344 684.402344 C 861.777344 683.386719 863.671875 690.453125 863.671875 690.453125 C 863.671875 690.453125 882.707031 689.433594 896.992188 709.617188 L 908.402344 708.597656 L 908.097656 703.769531 C 883.988281 676.746094 865.566406 681.347656 865.566406 681.347656 Z M 865.566406 681.371094 " fill-opacity="1" fill-rule="nonzero"/><path fill="#1e3837" d="M 952.730469 501.140625 L 1014.765625 545.78125 C 1015.761719 546.492188 1015.679688 548 1014.601562 548.613281 L 785.496094 676.808594 L 750.851562 676.808594 L 749.484375 608.300781 L 952.75 501.140625 Z M 952.730469 501.140625 " fill-opacity="1" fill-rule="nonzero"/><path fill="#1e3837" d="M 548.097656 501.140625 L 487.367188 543.519531 C 484.839844 545.292969 485.042969 549.019531 487.773438 548.429688 L 715.859375 674.75 L 756.273438 676.789062 L 757.679688 608.28125 Z M 548.097656 501.140625 " fill-opacity="1" fill-rule="nonzero"/><path fill="#1e3837" d="M 797.96875 695.15625 L 793.730469 687.765625 L 780.847656 695.484375 L 783.4375 703.40625 L 788.472656 718.699219 L 967.421875 819.585938 L 971.070312 804.046875 L 801.777344 709.617188 Z M 797.96875 695.15625 " fill-opacity="1" fill-rule="nonzero"/><path fill="#1e3837" d="M 632.363281 677.335938 C 632.363281 677.335938 627.148438 680.492188 620.015625 684.730469 C 618.34375 685.726562 616.40625 686.136719 614.511719 685.871094 C 609.519531 685.15625 598.085938 685.15625 586.675781 696.519531 C 577.199219 705.949219 568.820312 705.96875 563.847656 704.667969 C 564.15625 705.707031 567.761719 717.722656 570.492188 717.722656 C 573.222656 717.722656 580.011719 712.671875 591.441406 701.570312 C 602.855469 690.472656 617.140625 694.503906 618.097656 694.503906 C 619.058594 694.503906 639.050781 679.375 639.988281 684.425781 C 640.046875 684.710938 640.027344 685.074219 639.964844 685.464844 C 640.128906 684.933594 643.511719 674.425781 632.386719 677.359375 Z M 632.363281 677.335938 " fill-opacity="1" fill-rule="nonzero"/><path fill="#1e3837" d="M 997.011719 533.621094 L 1007.976562 548.691406 L 783.742188 669.984375 L 751.523438 662.449219 L 752.886719 629.5625 L 794.707031 605.570312 L 862.589844 566.511719 C 862.589844 566.511719 918.816406 530.875 929.78125 533.621094 C 940.746094 536.371094 996.972656 533.621094 996.972656 533.621094 Z M 997.011719 533.621094 " fill-opacity="1" fill-rule="nonzero"/><path fill="#1e3837" d="M 505.359375 533.621094 L 494.394531 548.691406 L 718.628906 669.984375 L 750.851562 662.449219 L 749.484375 629.5625 L 707.667969 605.570312 L 639.78125 566.511719 C 639.78125 566.511719 583.554688 530.875 572.59375 533.621094 C 561.628906 536.371094 505.402344 533.621094 505.402344 533.621094 Z M 505.359375 533.621094 " fill-opacity="1" fill-rule="nonzero"/><path fill="#ffecd3" d="M 997.011719 533.621094 L 922.261719 478.800781 C 913.355469 500.734375 851.625 521.28125 851.625 521.28125 C 772.085938 543.214844 751.175781 578.222656 751.175781 578.222656 C 751.175781 578.222656 730.265625 543.214844 650.726562 521.28125 C 650.726562 521.28125 589.019531 500.734375 580.089844 478.800781 L 505.339844 533.621094 C 505.339844 533.621094 504.648438 543.214844 580.765625 571.992188 C 656.882812 600.765625 731.957031 627.832031 751.503906 656.953125 C 771.046875 627.832031 845.453125 600.765625 921.570312 571.992188 C 997.6875 543.214844 996.992188 533.621094 996.992188 533.621094 Z M 997.011719 533.621094 " fill-opacity="1" fill-rule="nonzero"/><path fill="#74a574" d="M 710.640625 677.152344 L 792.546875 677.152344 C 792.546875 677.152344 782.195312 660.78125 756.332031 658.195312 C 730.472656 655.609375 716.675781 665.078125 710.640625 677.152344 Z M 710.640625 677.152344 " fill-opacity="1" fill-rule="nonzero"/><path fill="#1e3837" d="M 872.210938 438.945312 C 871.597656 428.621094 870.761719 418.316406 870.03125 407.992188 C 869.398438 399.277344 868.765625 390.558594 868.15625 381.84375 C 868.074219 380.640625 867.828125 379.421875 868.277344 378.078125 C 869.988281 379.867188 871.539062 381.519531 873.128906 383.128906 C 873.535156 383.554688 874.066406 383.980469 874.714844 383.695312 C 875.410156 383.390625 875.347656 382.699219 875.265625 382.128906 C 875.164062 381.335938 875.023438 380.539062 874.777344 379.789062 C 872.515625 372.78125 869.480469 366.101562 866.441406 359.402344 C 866.035156 358.484375 865.503906 357.628906 864.914062 356.816406 C 863.9375 355.472656 863.121094 355.574219 862.507812 357.140625 C 862.039062 358.382812 861.714844 359.6875 861.429688 360.992188 C 859.839844 368.179688 861.164062 375.367188 861.550781 382.535156 C 862.164062 394.125 863.078125 405.691406 863.835938 417.277344 C 864.324219 424.792969 864.710938 432.328125 865.199219 439.863281 C 865.933594 451.1875 866.726562 462.488281 867.421875 473.8125 C 867.910156 481.53125 868.214844 489.269531 868.746094 496.988281 C 869.640625 509.898438 870.316406 522.828125 870.316406 535.78125 C 870.316406 538.511719 869.253906 540.507812 867.21875 542.175781 C 864.484375 544.417969 861.328125 545.820312 858.066406 547.0625 C 849.914062 550.140625 847.46875 547.511719 842.660156 542.847656 C 842.027344 542.238281 842.046875 541.75 842.742188 541.21875 C 843.636719 540.546875 844.597656 539.894531 845.390625 539.101562 C 849.832031 534.761719 852.421875 529.304688 854.683594 523.625 C 858.003906 515.316406 856.519531 507.636719 851.972656 500.347656 C 849.875 496.964844 846.757812 496.355469 843.3125 498.25 C 840.417969 499.835938 838.257812 502.117188 836.628906 504.988281 C 833.898438 509.816406 833 515.113281 832.511719 520.546875 C 832.144531 524.601562 832.183594 528.675781 831.53125 532.707031 C 831.226562 534.640625 830.289062 535.742188 828.578125 536.597656 C 822.667969 539.570312 816.492188 541.953125 810.460938 544.679688 C 801.085938 548.917969 792.769531 554.578125 785.800781 562.195312 C 780.828125 567.613281 776.40625 573.496094 771.1875 578.671875 C 766.949219 582.863281 762.710938 587.039062 757.351562 589.789062 C 751.542969 592.761719 745.652344 590.011719 744.636719 583.539062 C 743.167969 574.210938 744.613281 565.453125 750.851562 557.898438 C 752.867188 555.472656 755.128906 553.316406 757.351562 551.074219 C 761.691406 546.695312 764.832031 541.605469 765.605469 535.414062 C 766.296875 529.976562 765.585938 524.640625 764.078125 519.367188 C 762.691406 514.542969 760.652344 509.960938 759.1875 505.171875 C 758.492188 502.871094 759.226562 502.160156 761.53125 502.667969 C 762.179688 502.8125 762.832031 503.035156 763.484375 503.054688 C 764.605469 503.074219 765.117188 502.527344 764.667969 501.386719 C 764.464844 500.898438 764.21875 500.40625 763.933594 499.960938 C 760.328125 494.625 755.722656 490.125 751.605469 485.214844 C 750.890625 484.359375 750.441406 484.542969 750.21875 485.625 C 749.6875 488.027344 749.015625 490.410156 749.078125 492.914062 C 749.242188 499.246094 751.585938 505.03125 753.683594 510.855469 C 756.25 518.023438 758.960938 525.128906 760.980469 532.484375 C 761.792969 535.433594 761.121094 537.714844 759.105469 539.773438 C 757.941406 540.953125 756.71875 542.113281 755.457031 543.195312 C 751.6875 546.433594 747.488281 549.039062 743.125 551.402344 C 731.796875 557.511719 720.199219 562.929688 707.320312 564.921875 C 697.679688 566.410156 688.164062 566.226562 678.871094 562.867188 C 670.332031 559.769531 664.847656 553.945312 662.628906 545.046875 C 660.9375 538.246094 661.101562 531.421875 662.261719 524.582031 C 663.789062 515.539062 668.519531 508.777344 676.527344 504.15625 C 685.085938 499.207031 694.03125 495.316406 703.609375 492.8125 C 707.359375 491.835938 711.070312 490.652344 714.617188 489.125 C 719.488281 487.027344 724.152344 484.339844 726.597656 479.554688 C 731.308594 470.347656 731.449219 460.796875 726.988281 451.371094 C 725.152344 447.519531 722.972656 443.8125 720.996094 440.046875 C 720.6875 439.457031 720.179688 438.886719 720.402344 437.847656 C 721.933594 438.90625 723.339844 439.800781 724.664062 440.800781 C 739.664062 452.304688 754.601562 463.894531 769.703125 475.277344 C 772.699219 477.539062 774.367188 479.71875 774.675781 483.769531 C 775.652344 496.476562 776.386719 509.207031 776.753906 521.933594 C 776.996094 530.671875 776.8125 539.425781 776.9375 548.183594 C 776.976562 551.320312 777.261719 554.4375 777.488281 557.570312 C 777.527344 558.0625 777.488281 558.773438 778.160156 558.894531 C 778.933594 559.039062 779.117188 558.304688 779.363281 557.777344 C 780.320312 555.636719 780.949219 553.375 781.441406 551.097656 C 783.804688 539.9375 784.515625 528.675781 784.335938 517.289062 C 784.171875 507.597656 783.519531 497.964844 782.234375 488.371094 C 781.867188 485.582031 781.828125 485.480469 784.640625 486.316406 C 789.410156 487.722656 794.238281 488.617188 799.25 488.433594 C 807.789062 488.128906 814.964844 482.8125 817.574219 474.707031 C 819 470.289062 819.425781 465.707031 819.550781 461.082031 C 819.773438 451.59375 819.40625 442.125 818.714844 432.675781 C 818.183594 425.363281 817.59375 418.03125 816.960938 410.722656 C 816.25 402.554688 815.472656 394.390625 814.738281 386.203125 C 813.964844 377.691406 813.210938 369.199219 812.457031 360.683594 C 811.90625 354.535156 811.398438 348.382812 810.867188 342.214844 C 811.480469 342.253906 811.621094 342.683594 811.867188 342.988281 C 813.496094 344.839844 815.105469 346.714844 816.777344 348.546875 C 817.207031 349.015625 817.695312 349.707031 818.449219 349.261719 C 819.082031 348.875 819.121094 348.097656 819 347.449219 C 818.753906 346.207031 818.53125 344.941406 818.101562 343.761719 C 815.492188 336.59375 812.292969 329.691406 808.75 322.949219 C 808.117188 321.746094 807.667969 319.832031 806.121094 319.996094 C 804.386719 320.179688 804.183594 322.214844 803.878906 323.640625 C 802.878906 327.980469 803.183594 332.417969 803.53125 336.796875 C 804.183594 345.167969 805.039062 353.535156 805.710938 361.925781 C 806.34375 369.910156 806.8125 377.894531 807.445312 385.875 C 808.421875 397.972656 809.480469 410.070312 810.542969 422.167969 C 811.277344 430.535156 812.171875 438.90625 812.824219 447.277344 C 813.355469 454.058594 813.824219 460.859375 813.742188 467.683594 C 813.699219 470.738281 812.4375 472.710938 809.5625 474.078125 C 801.351562 477.945312 793.566406 477.335938 785.902344 472.570312 C 783.558594 471.101562 782.195312 469.269531 781.828125 466.542969 C 780.378906 455.6875 780.054688 444.730469 779.484375 433.816406 C 779.015625 425.015625 778.769531 416.21875 778.464844 407.402344 C 778.382812 405.324219 777.996094 403.226562 778.546875 400.863281 C 780.035156 402.492188 781.296875 403.960938 782.664062 405.324219 C 783.335938 406.015625 784.152344 407.035156 785.191406 406.503906 C 786.289062 405.9375 785.78125 404.734375 785.597656 403.777344 C 785.007812 400.964844 784.128906 398.21875 783.089844 395.550781 C 780.625 389.339844 778.035156 383.1875 775.488281 377.015625 C 775.265625 376.507812 775.246094 375.671875 774.511719 375.652344 C 773.816406 375.652344 773.714844 376.46875 773.410156 376.957031 C 771.863281 379.421875 770.902344 382.109375 770.640625 385.019531 C 770.3125 388.625 770.332031 392.230469 770.476562 395.835938 C 770.945312 408.644531 771.535156 421.433594 772.066406 434.242188 C 772.332031 440.839844 772.574219 447.4375 772.777344 454.039062 C 772.839844 456.15625 773.042969 458.3125 772.554688 460.433594 C 772.269531 461.632812 771.636719 462.019531 770.535156 461.429688 C 769.191406 460.695312 767.785156 460.023438 766.542969 459.128906 C 754.640625 450.738281 742.738281 442.328125 730.859375 433.894531 C 727.3125 431.390625 723.785156 428.847656 720.363281 426.199219 C 718.550781 424.792969 718.753906 423.855469 720.871094 422.917969 C 722.484375 422.207031 724.214844 422.003906 725.96875 421.921875 C 733.40625 421.617188 740.824219 421.496094 747.671875 425.179688 C 748.832031 425.792969 750.199219 425.8125 750.726562 424.34375 C 752.417969 419.519531 752.746094 414.976562 748.203125 411.71875 C 745.859375 410.027344 743.308594 408.707031 740.824219 407.28125 C 737.441406 405.34375 734.546875 402.882812 732.9375 399.277344 C 730.0625 392.800781 728.921875 385.875 728.167969 378.890625 C 728.027344 377.648438 727.496094 375.980469 728.921875 375.226562 C 730.1875 374.554688 731 376.082031 732 376.628906 C 732.632812 376.976562 733.261719 377.609375 733.996094 377.019531 C 734.691406 376.449219 734.40625 375.652344 734.140625 374.980469 C 731.347656 367.75 726.761719 361.539062 722.828125 354.960938 C 722.359375 354.1875 721.789062 354.046875 721.523438 355.144531 C 720.34375 359.828125 719.304688 364.511719 720.179688 369.378906 C 722.460938 382.046875 724.703125 394.734375 726.984375 407.402344 C 727.25 408.929688 726.824219 409.824219 725.171875 410.089844 C 722.523438 410.519531 720.015625 411.433594 717.488281 412.351562 C 714.617188 413.410156 711.84375 414.792969 708.890625 415.628906 C 706.914062 416.199219 705.261719 415.996094 703.691406 414.589844 C 702.449219 413.492188 701.0625 412.535156 699.65625 411.636719 C 684.921875 402.167969 670.128906 392.839844 654.558594 384.777344 C 653.171875 384.0625 651.359375 383.414062 651.277344 381.578125 C 651.175781 379.644531 653.070312 379.074219 654.414062 378.300781 C 661.242188 374.453125 668.476562 371.519531 675.691406 368.503906 C 701.265625 357.875 727.414062 348.933594 754.5 342.90625 C 760.878906 341.480469 767.296875 340.097656 773.921875 340.503906 C 777.261719 340.707031 780.441406 341.5 783.03125 343.679688 C 785.984375 346.164062 787.1875 348.609375 783.824219 351.847656 C 780.929688 354.636719 777.914062 357.285156 774.734375 359.707031 C 763.425781 368.34375 753.746094 378.300781 748.019531 391.578125 C 747.609375 392.515625 747.082031 393.410156 746.511719 394.511719 C 747.691406 394.367188 748.058594 393.675781 748.546875 393.167969 C 755.621094 385.976562 762.628906 378.726562 769.886719 371.722656 C 774.675781 367.078125 780.011719 363.027344 784.292969 357.832031 C 788.125 353.191406 791.304688 348.242188 792.484375 342.214844 C 793.136719 338.894531 792.382812 336.144531 790.082031 333.539062 C 786.207031 329.160156 781.398438 327.878906 775.816406 328.425781 C 766.949219 329.324219 758.328125 331.503906 749.710938 333.640625 C 731.550781 338.160156 713.65625 343.597656 695.96875 349.6875 C 691.8125 351.132812 687.550781 352.335938 683.355469 353.660156 C 682.292969 353.984375 681.398438 354.027344 680.828125 352.84375 C 679.6875 350.503906 678.382812 348.242188 677.363281 345.839844 C 675.976562 342.539062 676.382812 341.808594 679.625 340.320312 C 688.835938 336.023438 698.414062 332.621094 707.851562 328.894531 C 719.792969 324.210938 732.101562 320.527344 743.984375 315.679688 C 745.226562 315.167969 746.429688 314.578125 747.570312 313.925781 C 748.304688 313.5 749.199219 312.949219 748.8125 311.910156 C 748.382812 310.769531 747.324219 311.015625 746.386719 311.136719 C 746.183594 311.15625 746 311.238281 745.796875 311.28125 C 736.542969 313.175781 727.679688 316.390625 718.773438 319.464844 C 705.691406 323.96875 692.75 328.773438 680.050781 334.332031 C 675.34375 336.390625 673.328125 339.871094 672.390625 344.496094 C 671.902344 346.878906 672.371094 349.015625 673.855469 350.910156 C 674.816406 352.113281 675.832031 353.273438 676.875 354.390625 C 677.730469 355.308594 677.707031 355.941406 676.507812 356.488281 C 674.875 357.265625 673.285156 358.097656 671.675781 358.933594 C 664.992188 362.457031 658.144531 365.613281 651.644531 369.484375 C 649.625 370.683594 647.445312 371.84375 646.507812 374.105469 C 643.105469 382.167969 642.941406 387.8125 649.074219 393.695312 C 652.664062 397.136719 656.71875 399.949219 660.773438 402.800781 C 669.78125 409.152344 678.992188 415.242188 687.492188 422.246094 C 689.449219 423.863281 689.5 425.558594 687.652344 427.339844 C 679.992188 434.792969 672.125 442.023438 664.117188 449.109375 C 658.164062 454.382812 652.152344 459.597656 645.734375 464.28125 C 641.902344 467.089844 637.664062 468.699219 632.855469 468.558594 C 630.589844 468.496094 628.960938 467.457031 627.597656 465.503906 C 624.886719 461.613281 625.027344 457.4375 626.109375 453.242188 C 628.636719 443.488281 632.855469 434.40625 637.621094 425.585938 C 638.886719 423.246094 640.25 420.925781 641.414062 418.542969 C 641.921875 417.503906 643.105469 416.015625 641.574219 415.203125 C 640.089844 414.429688 639.597656 416.300781 638.84375 417.199219 C 638.375 417.746094 638.007812 418.417969 637.644531 419.050781 C 635.847656 422.105469 634.078125 425.160156 632.304688 428.234375 C 628.351562 435.078125 624.90625 442.125 622.988281 449.863281 C 620.707031 459.007812 621.195312 467.722656 627.371094 475.277344 C 629.796875 478.269531 630 480.960938 628.511719 484.277344 C 626.109375 489.65625 624.316406 495.234375 623.378906 501.078125 C 622.175781 508.574219 622.113281 515.988281 624.824219 523.175781 C 626.902344 528.734375 630.632812 532.441406 636.929688 532.6875 C 641.800781 532.890625 645.835938 530.730469 649.542969 527.839844 C 652.886719 525.210938 655.902344 522.15625 659.917969 519.550781 C 659.671875 520.570312 659.550781 521.078125 659.429688 521.585938 C 657.453125 530.628906 655.066406 539.609375 656.023438 549.058594 C 656.941406 557.980469 660.632812 565.269531 667.703125 570.808594 C 675.652344 577.019531 684.964844 578.386719 694.625 577.9375 C 705.382812 577.449219 715.675781 574.636719 725.722656 570.726562 C 730.472656 568.875 735.078125 566.839844 739.558594 564.414062 C 741.597656 563.292969 742.453125 563.886719 742.269531 566.226562 C 742.148438 567.753906 741.742188 569.242188 741.414062 570.75 C 739.886719 577.875 740.539062 584.65625 744.226562 591.070312 C 747.570312 596.917969 756.269531 602.332031 764.769531 596.304688 C 768.96875 593.332031 772.433594 589.667969 775.691406 585.777344 C 780.460938 580.09375 785.046875 574.269531 790.570312 569.28125 C 799.171875 561.523438 809.136719 556.023438 819.671875 551.484375 C 823.644531 549.773438 827.578125 547.859375 831.777344 546.675781 C 835.261719 545.699219 836.261719 546.25 837.503906 549.648438 C 838.402344 552.132812 839.847656 554.292969 841.578125 556.269531 C 844.820312 559.953125 848.773438 561.296875 853.644531 560.199219 C 861.449219 558.425781 866.667969 553.5 870.476562 546.757812 C 874.714844 539.222656 875.550781 530.914062 875.613281 522.542969 C 875.714844 509.183594 875.652344 495.847656 875.449219 482.488281 C 875.226562 467.90625 873.105469 453.488281 872.25 438.96875 Z M 644.042969 518.980469 C 640.742188 521.140625 637.152344 522.503906 633.117188 522.300781 C 629.816406 522.136719 627.800781 520.546875 626.882812 517.371094 C 626.636719 516.535156 626.394531 515.679688 626.351562 514.828125 C 626.269531 513.300781 626.332031 511.75 626.332031 510.222656 C 626.558594 501.101562 628.59375 492.40625 632.628906 484.199219 C 633.585938 482.242188 634.914062 480.652344 637.113281 480.246094 C 643.632812 479.023438 648.648438 475.113281 653.558594 471.082031 C 664.625 462.019531 674.773438 451.960938 685.492188 442.511719 C 689.609375 438.886719 693.6875 435.242188 698.332031 432.308594 C 699.332031 431.675781 700.066406 431.332031 701.125 432.308594 C 711.132812 441.613281 719.566406 452.144531 725.804688 464.34375 C 728.148438 468.925781 727.375 471.285156 722.910156 473.933594 C 716.511719 477.742188 709.378906 479.636719 702.328125 481.632812 C 692.238281 484.484375 682.519531 488.109375 673.835938 494.09375 C 670.109375 496.660156 666.683594 499.65625 663.363281 502.75 C 657.207031 508.492188 651.132812 514.316406 644.0625 518.960938 Z M 841.539062 531.585938 C 840.132812 532.359375 838.929688 531.890625 838.402344 530.261719 C 837.015625 525.984375 836.179688 521.585938 836.078125 517.105469 C 835.996094 513.625 839.5625 510.019531 843.066406 509.753906 C 845.472656 509.570312 847.101562 510.996094 848.265625 512.910156 C 849.773438 515.417969 850.527344 518.167969 850.667969 520.753906 C 850.667969 522.15625 850.710938 523.257812 850.058594 524.195312 C 847.835938 527.371094 844.882812 529.753906 841.539062 531.628906 Z M 841.539062 531.585938 " fill-opacity="1" fill-rule="nonzero"/><path fill="#1e3837" d="M 835.832031 407.929688 C 836.21875 413.714844 838.378906 448.417969 838.585938 453.082031 C 838.765625 457.335938 839.03125 461.613281 839.316406 465.871094 C 839.398438 466.929688 839.054688 468.640625 840.355469 468.742188 C 841.519531 468.820312 841.703125 467.132812 841.988281 466.074219 C 844.289062 457.316406 845.351562 448.375 845.1875 439.332031 C 845.066406 432.695312 844.148438 421.1875 844.046875 419.925781 C 843.292969 410.679688 842.640625 401.433594 841.925781 392.210938 C 841.335938 384.429688 840.664062 376.652344 840.113281 368.871094 C 839.867188 365.410156 839.460938 361.96875 839.5625 358.484375 C 839.601562 357.039062 840.171875 356.816406 841.253906 357.628906 C 842.3125 358.425781 843.332031 359.320312 844.390625 360.113281 C 844.984375 360.5625 845.535156 361.601562 846.367188 361.011719 C 847.082031 360.523438 846.492188 359.644531 846.289062 358.972656 C 844.453125 353.027344 842.027344 347.324219 839.542969 341.625 C 838.503906 339.242188 837.421875 336.859375 836.015625 334.660156 C 835.691406 334.148438 835.382812 333.558594 834.671875 333.601562 C 833.875 333.640625 833.570312 334.292969 833.347656 334.921875 C 832.816406 336.449219 832.652344 338.039062 832.53125 339.648438 C 831.941406 347.589844 832.632812 355.511719 833.039062 363.433594 C 833.816406 378.28125 834.8125 393.125 835.8125 407.972656 Z M 835.832031 407.929688 " fill-opacity="1" fill-rule="nonzero"/><path fill="#1e3837" d="M 897.625 408.886719 C 896.582031 404.875 895.015625 401.027344 893.445312 397.21875 C 891.734375 393.023438 890.101562 388.769531 887.535156 384.980469 C 887.085938 384.328125 886.617188 383.554688 885.660156 383.695312 C 884.660156 383.859375 884.316406 384.734375 884.089844 385.589844 C 883.601562 387.34375 883.5 389.132812 883.480469 390.945312 C 883.398438 403.898438 884.457031 416.808594 885.128906 429.722656 C 885.539062 437.519531 885.863281 445.300781 886.433594 453.101562 C 887.371094 466.132812 887.839844 479.207031 888.25 492.28125 C 888.511719 500.550781 888.289062 508.839844 888.332031 517.105469 C 888.351562 520.773438 888.148438 524.457031 888.65625 528.105469 C 888.757812 528.753906 888.390625 529.835938 889.390625 529.917969 C 890.246094 530 890.367188 528.980469 890.675781 528.328125 C 894.28125 520.242188 895.359375 511.691406 895.644531 502.953125 C 895.890625 495.683594 895.605469 488.414062 895.257812 481.144531 C 894.730469 469.757812 893.894531 458.375 893.078125 447.011719 C 892.304688 436.175781 891.652344 425.324219 891.019531 414.46875 C 890.855469 411.636719 891 408.785156 891 405.425781 C 892.527344 407.339844 893.691406 408.867188 894.933594 410.3125 C 895.605469 411.109375 896.296875 412.390625 897.441406 411.820312 C 898.664062 411.210938 897.910156 409.84375 897.664062 408.910156 Z M 897.625 408.886719 " fill-opacity="1" fill-rule="nonzero"/><path fill="#1e3837" d="M 836.320312 487.824219 C 837.15625 488.738281 837.828125 488.679688 838.625 487.824219 C 839.582031 486.804688 840.621094 485.847656 841.621094 484.871094 C 845.65625 480.835938 845.613281 480.898438 850.28125 484.238281 C 855.765625 488.148438 854.195312 488.941406 859.410156 483.21875 C 860.328125 482.222656 861.183594 481.203125 861.246094 479.515625 C 861.164062 477.882812 860.023438 476.5625 858.863281 475.277344 C 855.765625 471.855469 853.011719 471.714844 849.546875 474.769531 C 848.386719 475.785156 847.203125 476.765625 846.144531 477.863281 C 845.226562 478.839844 844.574219 478.71875 843.679688 477.824219 C 841.925781 476.070312 840.050781 474.464844 838.277344 472.773438 C 837.542969 472.082031 836.972656 471.980469 836.300781 472.835938 C 834.46875 475.214844 832.613281 477.578125 830.738281 479.921875 C 830.105469 480.714844 830.207031 481.328125 830.878906 482.019531 C 832.714844 483.953125 834.550781 485.886719 836.34375 487.863281 Z M 836.320312 487.824219 " fill-opacity="1" fill-rule="nonzero"/><path fill="#1e3837" d="M 812.191406 517.921875 C 809.929688 517.921875 807.648438 517.921875 805.488281 517.085938 C 803 516.128906 802.59375 514.378906 804.40625 512.464844 C 805.976562 510.792969 808.015625 510.304688 810.257812 510.425781 C 810.726562 510.425781 811.195312 510.449219 811.664062 510.425781 C 814.007812 510.265625 815.699219 508.941406 815.472656 507.433594 C 815.25 505.804688 812.90625 504.683594 810.746094 505.214844 C 810.234375 505.335938 809.707031 505.5 809.21875 505.703125 C 804.222656 507.882812 800.738281 511.609375 798.234375 516.332031 C 797.582031 517.574219 797.824219 518.796875 798.679688 519.898438 C 799.171875 520.527344 799.699219 521.117188 800.210938 521.75 C 801.148438 522.910156 801.738281 523.96875 799.824219 524.867188 C 799.128906 525.191406 798.539062 525.863281 798.089844 526.496094 C 797.539062 527.289062 796.664062 528.289062 797.214844 529.183594 C 797.886719 530.261719 799.007812 529.386719 799.945312 529.144531 C 800.394531 529.019531 800.820312 528.816406 801.25 528.652344 C 807.160156 526.375 812.988281 523.867188 819.324219 522.929688 C 819.835938 522.851562 820.363281 522.6875 820.832031 522.441406 C 822.054688 521.792969 823.238281 520.875 822.953125 519.386719 C 822.667969 517.902344 821.140625 517.960938 819.996094 517.921875 C 817.390625 517.839844 814.800781 517.960938 812.191406 517.941406 Z M 812.191406 517.921875 " fill-opacity="1" fill-rule="nonzero"/><path fill="#1e3837" d="M 713.453125 521.199219 C 712.253906 521.28125 711.292969 521.792969 710.539062 522.75 C 709.625 523.929688 709.074219 525.273438 708.441406 526.597656 C 707.484375 528.59375 707.953125 530.242188 709.441406 531.6875 C 711.316406 533.5 713.371094 535.109375 715.65625 536.394531 C 716.757812 537.003906 717.917969 537.246094 719.097656 536.636719 C 721.015625 535.660156 723.277344 529.773438 722.585938 527.695312 C 721.769531 525.253906 715.980469 521.140625 713.453125 521.199219 Z M 713.453125 521.199219 " fill-opacity="1" fill-rule="nonzero"/><path fill="#1e3837" d="M 676.425781 467.355469 C 679.175781 469.351562 681.90625 471.410156 684.597656 473.507812 C 685.617188 474.300781 686.289062 474.179688 687.105469 473.179688 C 688.734375 471.164062 690.527344 469.25 692.136719 467.214844 C 693.054688 466.050781 693.789062 465.972656 694.929688 466.90625 C 696.621094 468.3125 698.476562 469.535156 700.207031 470.878906 C 704.875 474.484375 703.550781 474.117188 706.8125 470.003906 C 708.054688 468.433594 709.234375 466.785156 709.277344 464.648438 C 709.277344 463.058594 708.460938 461.835938 707.421875 460.777344 C 705.730469 459.027344 703.753906 457.683594 701.632812 456.523438 C 700.1875 455.707031 698.925781 455.890625 697.90625 457.195312 C 696.621094 458.824219 695.316406 460.433594 694.175781 462.164062 C 693.300781 463.488281 692.523438 463.589844 691.300781 462.652344 C 688.980469 460.859375 686.59375 459.128906 683.925781 457.84375 C 682.785156 457.296875 681.785156 457.273438 680.804688 458.191406 C 678.851562 460.046875 677.21875 462.140625 675.855469 464.464844 C 675.183594 465.605469 675.242188 466.542969 676.425781 467.398438 Z M 676.425781 467.355469 " fill-opacity="1" fill-rule="nonzero"/><g transform="matrix(1, 0, 0, 1, 275, 918)"><g clip-path="url(#dec599ee5c)"><g fill="#1e3837" fill-opacity="1"><g transform="translate(4.010444, 102.309281)"><g><path d="M 53.078125 -100.65625 L 87.234375 -19.21875 C 89.066406 -14.738281 91.304688 -11.175781 93.953125 -8.53125 C 96.597656 -5.894531 99.644531 -4.375 103.09375 -3.96875 L 103.09375 -0.15625 C 102.28125 0.0507812 101.132812 0.226562 99.65625 0.375 C 98.1875 0.53125 96.894531 0.609375 95.78125 0.609375 C 92.425781 0.609375 88.890625 0.175781 85.171875 -0.6875 C 81.460938 -1.550781 77.90625 -3.40625 74.5 -6.25 C 71.09375 -9.101562 68.171875 -13.425781 65.734375 -19.21875 L 62.21875 -27.765625 L 21.65625 -27.765625 L 9.15625 0 L 1.21875 0 L 46.21875 -100.65625 Z M 42.546875 -74.421875 L 24.859375 -34.625 L 59.328125 -34.625 Z M 42.546875 -74.421875 "/></g></g></g><g fill="#1e3837" fill-opacity="1"><g transform="translate(114.535103, 102.309281)"><g><path d="M 34.3125 -6.859375 L 86.9375 -6.859375 L 86.9375 0 L 14.484375 0 L 14.484375 -80.828125 C 14.484375 -85.410156 13.847656 -89.097656 12.578125 -91.890625 C 11.304688 -94.679688 8.382812 -96.078125 3.8125 -96.078125 L 2.28125 -96.078125 L 2.28125 -100.65625 L 20.59375 -100.65625 C 25.976562 -100.65625 29.609375 -99.234375 31.484375 -96.390625 C 33.367188 -93.546875 34.3125 -88.359375 34.3125 -80.828125 Z M 34.3125 -6.859375 "/></g></g></g><g fill="#1e3837" fill-opacity="1"><g transform="translate(202.64663, 102.309281)"><g><path d="M 8.84375 -33.09375 L 8.84375 -47.578125 L 51.390625 -47.578125 L 51.390625 -33.09375 Z M 8.84375 -33.09375 "/></g></g></g><g fill="#1e3837" fill-opacity="1"><g transform="translate(273.079987, 102.309281)"><g><path d="M 14.640625 0 L 14.484375 -80.828125 C 14.484375 -85.410156 13.847656 -89.097656 12.578125 -91.890625 C 11.304688 -94.679688 8.382812 -96.078125 3.8125 -96.078125 L 2.28125 -96.078125 L 2.28125 -100.65625 L 20.59375 -100.65625 C 25.875 -100.65625 29.503906 -99.234375 31.484375 -96.390625 C 33.472656 -93.546875 34.46875 -88.359375 34.46875 -80.828125 L 34.46875 -51.859375 L 60.859375 -84.640625 C 64.210938 -88.816406 68.046875 -92.53125 72.359375 -95.78125 C 76.679688 -99.03125 81.84375 -100.65625 87.84375 -100.65625 L 98.53125 -100.65625 L 98.53125 -95.328125 C 92.726562 -95.328125 87.488281 -94.585938 82.8125 -93.109375 C 78.132812 -91.640625 74.066406 -88.769531 70.609375 -84.5 L 47.890625 -56.4375 L 83.125 -19.828125 C 85.769531 -17.078125 88.585938 -14.53125 91.578125 -12.1875 C 94.578125 -9.851562 97.472656 -7.925781 100.265625 -6.40625 C 103.066406 -4.882812 105.4375 -3.96875 107.375 -3.65625 L 107.375 0 C 106.25 0.40625 104.695312 0.757812 102.71875 1.0625 C 100.738281 1.375 98.578125 1.53125 96.234375 1.53125 C 92.472656 1.53125 88.660156 1.070312 84.796875 0.15625 C 80.929688 -0.757812 76.890625 -2.539062 72.671875 -5.1875 C 68.453125 -7.832031 63.90625 -11.695312 59.03125 -16.78125 L 34.46875 -42.40625 L 34.46875 0 Z M 14.640625 0 "/></g></g></g><g fill="#1e3837" fill-opacity="1"><g transform="translate(390.616661, 102.309281)"><g><path d="M 53.078125 -100.65625 L 87.234375 -19.21875 C 89.066406 -14.738281 91.304688 -11.175781 93.953125 -8.53125 C 96.597656 -5.894531 99.644531 -4.375 103.09375 -3.96875 L 103.09375 -0.15625 C 102.28125 0.0507812 101.132812 0.226562 99.65625 0.375 C 98.1875 0.53125 96.894531 0.609375 95.78125 0.609375 C 92.425781 0.609375 88.890625 0.175781 85.171875 -0.6875 C 81.460938 -1.550781 77.90625 -3.40625 74.5 -6.25 C 71.09375 -9.101562 68.171875 -13.425781 65.734375 -19.21875 L 62.21875 -27.765625 L 21.65625 -27.765625 L 9.15625 0 L 1.21875 0 L 46.21875 -100.65625 Z M 42.546875 -74.421875 L 24.859375 -34.625 L 59.328125 -34.625 Z M 42.546875 -74.421875 "/></g></g></g><g fill="#1e3837" fill-opacity="1"><g transform="translate(501.141319, 102.309281)"><g><path d="M 44.375 -94.5625 C 40.925781 -94.5625 37.625 -94.203125 34.46875 -93.484375 L 34.46875 -52.15625 L 43.625 -52.15625 C 46.875 -52.15625 50.070312 -52.816406 53.21875 -54.140625 C 56.375 -55.460938 58.992188 -57.671875 61.078125 -60.765625 C 63.160156 -63.867188 64.203125 -68.066406 64.203125 -73.359375 C 64.203125 -78.648438 63.1875 -82.84375 61.15625 -85.9375 C 59.125 -89.039062 56.582031 -91.253906 53.53125 -92.578125 C 50.476562 -93.898438 47.425781 -94.5625 44.375 -94.5625 Z M 55.828125 -20.59375 L 40.5625 -46.0625 L 34.46875 -46.0625 L 34.46875 0 L 14.484375 0 L 14.484375 -80.828125 C 14.484375 -85.410156 13.847656 -89.097656 12.578125 -91.890625 C 11.304688 -94.679688 8.382812 -96.078125 3.8125 -96.078125 L 2.28125 -96.078125 L 2.28125 -100.65625 L 44.375 -100.65625 C 47.226562 -100.65625 50.484375 -100.476562 54.140625 -100.125 C 57.804688 -99.769531 61.46875 -99.054688 65.125 -97.984375 C 68.78125 -96.921875 72.160156 -95.347656 75.265625 -93.265625 C 78.367188 -91.179688 80.859375 -88.460938 82.734375 -85.109375 C 84.617188 -81.753906 85.5625 -77.582031 85.5625 -72.59375 C 85.5625 -67.3125 84.316406 -62.96875 81.828125 -59.5625 C 79.335938 -56.15625 76.1875 -53.507812 72.375 -51.625 C 68.5625 -49.75 64.722656 -48.300781 60.859375 -47.28125 L 76.875 -20.59375 C 80.726562 -14.082031 84.28125 -9.757812 87.53125 -7.625 C 90.789062 -5.488281 93.539062 -4.21875 95.78125 -3.8125 L 95.78125 0 C 94.96875 0.40625 93.519531 0.757812 91.4375 1.0625 C 89.351562 1.375 87.34375 1.53125 85.40625 1.53125 C 80.019531 1.53125 75.015625 -0.0664062 70.390625 -3.265625 C 65.765625 -6.472656 60.910156 -12.25 55.828125 -20.59375 Z M 55.828125 -20.59375 "/></g></g></g><g fill="#1e3837" fill-opacity="1"><g transform="translate(606.940477, 102.309281)"><g><path d="M 2.28125 -100.65625 L 69.546875 -100.65625 C 73.109375 -100.65625 75.800781 -100.070312 77.625 -98.90625 C 79.457031 -97.738281 80.726562 -96.210938 81.4375 -94.328125 C 82.15625 -92.453125 82.515625 -90.492188 82.515625 -88.453125 L 82.515625 -75.5 L 77.9375 -75.5 C 77.9375 -82 76.28125 -86.671875 72.96875 -89.515625 C 69.664062 -92.367188 64.96875 -93.796875 58.875 -93.796875 L 34.3125 -93.796875 L 34.3125 -55.671875 L 73.96875 -55.671875 L 73.96875 -48.8125 L 34.3125 -48.8125 L 34.3125 -6.859375 L 60.390625 -6.859375 C 65.984375 -6.859375 70.738281 -8.101562 74.65625 -10.59375 C 78.570312 -13.09375 81.851562 -17.644531 84.5 -24.25 L 88.609375 -22.71875 L 84.1875 -10.671875 C 83.070312 -7.421875 81.625 -4.828125 79.84375 -2.890625 C 78.0625 -0.960938 75.085938 0 70.921875 0 L 14.484375 0 L 14.484375 -80.828125 C 14.484375 -85.410156 13.847656 -89.097656 12.578125 -91.890625 C 11.304688 -94.679688 8.382812 -96.078125 3.8125 -96.078125 L 2.28125 -96.078125 Z M 2.28125 -100.65625 "/></g></g></g><g fill="#1e3837" fill-opacity="1"><g transform="translate(710.300644, 102.309281)"><g><path d="M 2.28125 -100.65625 L 69.546875 -100.65625 C 73.109375 -100.65625 75.800781 -100.070312 77.625 -98.90625 C 79.457031 -97.738281 80.726562 -96.210938 81.4375 -94.328125 C 82.15625 -92.453125 82.515625 -90.492188 82.515625 -88.453125 L 82.515625 -75.5 L 77.9375 -75.5 C 77.9375 -82 76.28125 -86.671875 72.96875 -89.515625 C 69.664062 -92.367188 64.96875 -93.796875 58.875 -93.796875 L 34.3125 -93.796875 L 34.3125 -55.671875 L 73.96875 -55.671875 L 73.96875 -48.8125 L 34.3125 -48.8125 L 34.3125 -6.859375 L 60.390625 -6.859375 C 65.984375 -6.859375 70.738281 -8.101562 74.65625 -10.59375 C 78.570312 -13.09375 81.851562 -17.644531 84.5 -24.25 L 88.609375 -22.71875 L 84.1875 -10.671875 C 83.070312 -7.421875 81.625 -4.828125 79.84375 -2.890625 C 78.0625 -0.960938 75.085938 0 70.921875 0 L 14.484375 0 L 14.484375 -80.828125 C 14.484375 -85.410156 13.847656 -89.097656 12.578125 -91.890625 C 11.304688 -94.679688 8.382812 -96.078125 3.8125 -96.078125 L 2.28125 -96.078125 Z M 2.28125 -100.65625 "/></g></g></g><g fill="#1e3837" fill-opacity="1"><g transform="translate(813.660811, 102.309281)"><g><path d="M 118.046875 -100.65625 L 118.046875 -25.921875 C 118.046875 -16.671875 118.832031 -9.734375 120.40625 -5.109375 C 121.988281 -0.484375 124.914062 2.234375 129.1875 3.046875 L 129.1875 6.859375 C 118.101562 6.859375 110.171875 4.269531 105.390625 -0.90625 C 100.609375 -6.09375 98.21875 -14.429688 98.21875 -25.921875 L 98.21875 -79.921875 L 64.8125 0 L 59.78125 0 L 18.90625 -82.96875 L 18.90625 0 L 11.28125 0 L 11.28125 -100.65625 L 29.890625 -100.65625 L 66.796875 -25.78125 L 98.0625 -100.65625 Z M 118.046875 -100.65625 "/></g></g></g></g></g><g transform="matrix(1, 0, 0, 1, 432, 1076)"><g clip-path="url(#f7d0abaf3b)"><g fill="#044637" fill-opacity="1"><g transform="translate(0.876246, 56.994532)"><g><path d="M 30.09375 -53.15625 C 35.164062 -53.15625 39.703125 -51.992188 43.703125 -49.671875 C 47.710938 -47.359375 50.875 -44.175781 53.1875 -40.125 C 55.507812 -36.070312 56.695312 -31.554688 56.75 -26.578125 C 56.75 -21.992188 55.5625 -17.710938 53.1875 -13.734375 C 50.820312 -9.753906 47.8125 -6.984375 44.15625 -5.421875 L 44.15625 -5.265625 L 60.1875 -5.265625 L 60.1875 0 L 29.953125 0 C 22.523438 0 16.285156 -2.535156 11.234375 -7.609375 C 6.179688 -12.691406 3.582031 -19.015625 3.4375 -26.578125 C 3.4375 -31.554688 4.609375 -36.070312 6.953125 -40.125 C 9.296875 -44.175781 12.53125 -47.359375 16.65625 -49.671875 C 20.78125 -51.992188 25.257812 -53.15625 30.09375 -53.15625 Z M 10.03125 -26.578125 C 10.03125 -20.722656 11.957031 -15.804688 15.8125 -11.828125 C 19.664062 -7.847656 24.425781 -5.8125 30.09375 -5.71875 C 35.800781 -5.71875 40.546875 -7.726562 44.328125 -11.75 C 48.117188 -15.78125 50.0625 -20.722656 50.15625 -26.578125 C 50.15625 -32.484375 48.238281 -37.425781 44.40625 -41.40625 C 40.570312 -45.382812 35.773438 -47.398438 30.015625 -47.453125 C 24.398438 -47.453125 19.703125 -45.472656 15.921875 -41.515625 C 12.140625 -37.554688 10.175781 -32.578125 10.03125 -26.578125 Z M 10.03125 -26.578125 "/></g></g></g><g fill="#044637" fill-opacity="1"><g transform="translate(67.91191, 56.994532)"><g><path d="M 12.375 -51.84375 L 12.375 -20.640625 C 12.375 -15.367188 13.492188 -11.367188 15.734375 -8.640625 C 17.984375 -5.910156 21.328125 -4.492188 25.765625 -4.390625 C 30.210938 -4.441406 33.546875 -5.84375 35.765625 -8.59375 C 37.984375 -11.351562 39.117188 -15.273438 39.171875 -20.359375 L 39.171875 -51.84375 L 45.328125 -51.84375 L 45.328125 -19.546875 C 45.328125 -12.960938 43.617188 -7.847656 40.203125 -4.203125 C 36.785156 -0.566406 31.972656 1.269531 25.765625 1.3125 C 19.671875 1.3125 14.898438 -0.523438 11.453125 -4.203125 C 8.015625 -7.890625 6.269531 -13.03125 6.21875 -19.625 L 6.21875 -51.84375 Z M 12.375 -51.84375 "/></g></g></g><g fill="#044637" fill-opacity="1"><g transform="translate(125.434308, 56.994532)"><g><path d="M 20.578125 -51.84375 C 27.359375 -51.84375 32.347656 -50.71875 35.546875 -48.46875 C 38.742188 -46.226562 40.34375 -42.617188 40.34375 -37.640625 C 40.34375 -33.972656 39.253906 -30.957031 37.078125 -28.59375 C 34.910156 -26.226562 31.679688 -24.65625 27.390625 -23.875 L 42.09375 0 L 34.5625 0 L 20.5 -23.28125 L 12.59375 -23.28125 L 12.59375 0 L 6.4375 0 L 6.4375 -51.84375 Z M 19.921875 -29 C 24.753906 -29 28.265625 -29.664062 30.453125 -31 C 32.648438 -32.34375 33.75 -34.53125 33.75 -37.5625 C 33.75 -40.488281 32.757812 -42.644531 30.78125 -44.03125 C 28.8125 -45.425781 25.75 -46.125 21.59375 -46.125 L 12.59375 -46.125 L 12.59375 -29 Z M 19.921875 -29 "/></g></g></g><g fill="#044637" fill-opacity="1"><g transform="translate(176.151087, 56.994532)"><g><path d="M 29.0625 -51.84375 L 51.109375 0 L 43.9375 0 L 38.65625 -12.734375 L 12.734375 -12.734375 L 7.390625 0 L 0.4375 0 L 23.28125 -51.84375 Z M 25.921875 -43.9375 L 15.15625 -18.453125 L 36.3125 -18.453125 L 26.0625 -43.9375 Z M 25.921875 -43.9375 "/></g></g></g><g fill="#044637" fill-opacity="1"><g transform="translate(233.673485, 56.994532)"><g><path d="M 14.203125 -51.84375 L 44.21875 -8.78125 L 44.375 -8.78125 L 44.375 -51.84375 L 50.515625 -51.84375 L 50.515625 0 L 42.765625 0 L 12.734375 -43.046875 L 12.59375 -43.046875 L 12.59375 0 L 6.4375 0 L 6.4375 -51.84375 Z M 14.203125 -51.84375 "/></g></g></g><g fill="#044637" fill-opacity="1"><g transform="translate(296.611089, 56.994532)"><g/></g></g><g fill="#044637" fill-opacity="1"><g transform="translate(322.959314, 56.994532)"><g><path d="M 20.578125 -51.84375 C 27.359375 -51.84375 32.347656 -50.71875 35.546875 -48.46875 C 38.742188 -46.226562 40.34375 -42.617188 40.34375 -37.640625 C 40.34375 -33.972656 39.253906 -30.957031 37.078125 -28.59375 C 34.910156 -26.226562 31.679688 -24.65625 27.390625 -23.875 L 42.09375 0 L 34.5625 0 L 20.5 -23.28125 L 12.59375 -23.28125 L 12.59375 0 L 6.4375 0 L 6.4375 -51.84375 Z M 19.921875 -29 C 24.753906 -29 28.265625 -29.664062 30.453125 -31 C 32.648438 -32.34375 33.75 -34.53125 33.75 -37.5625 C 33.75 -40.488281 32.757812 -42.644531 30.78125 -44.03125 C 28.8125 -45.425781 25.75 -46.125 21.59375 -46.125 L 12.59375 -46.125 L 12.59375 -29 Z M 19.921875 -29 "/></g></g></g><g fill="#044637" fill-opacity="1"><g transform="translate(373.676092, 56.994532)"><g><path d="M 39.03125 -51.84375 L 39.03125 -46.125 L 12.59375 -46.125 L 12.59375 -29.875 L 37.265625 -29.875 L 37.265625 -24.15625 L 12.59375 -24.15625 L 12.59375 -5.71875 L 40.34375 -5.71875 L 40.34375 0 L 6.4375 0 L 6.4375 -51.84375 Z M 39.03125 -51.84375 "/></g></g></g><g fill="#044637" fill-opacity="1"><g transform="translate(423.075639, 56.994532)"><g><path d="M 29.0625 -51.84375 L 51.109375 0 L 43.9375 0 L 38.65625 -12.734375 L 12.734375 -12.734375 L 7.390625 0 L 0.4375 0 L 23.28125 -51.84375 Z M 25.921875 -43.9375 L 15.15625 -18.453125 L 36.3125 -18.453125 L 26.0625 -43.9375 Z M 25.921875 -43.9375 "/></g></g></g><g fill="#044637" fill-opacity="1"><g transform="translate(480.598038, 56.994532)"><g><path d="M 24.828125 -51.84375 C 32.390625 -51.84375 38.585938 -49.460938 43.421875 -44.703125 C 48.253906 -39.941406 50.71875 -33.679688 50.8125 -25.921875 C 50.8125 -18.203125 48.382812 -11.972656 43.53125 -7.234375 C 38.675781 -2.503906 32.488281 -0.09375 24.96875 0 L 5.484375 0 L 5.484375 -51.84375 Z M 23.359375 -5.71875 C 29.847656 -5.71875 34.9375 -7.4375 38.625 -10.875 C 42.3125 -14.3125 44.175781 -19.328125 44.21875 -25.921875 C 44.21875 -32.265625 42.410156 -37.191406 38.796875 -40.703125 C 35.191406 -44.222656 30.046875 -46.03125 23.359375 -46.125 L 11.640625 -46.125 L 11.640625 -5.71875 Z M 23.359375 -5.71875 "/></g></g></g><g fill="#044637" fill-opacity="1"><g transform="translate(540.828082, 56.994532)"><g><path d="M 39.03125 -51.84375 L 39.03125 -46.125 L 12.59375 -46.125 L 12.59375 -29.875 L 37.265625 -29.875 L 37.265625 -24.15625 L 12.59375 -24.15625 L 12.59375 -5.71875 L 40.34375 -5.71875 L 40.34375 0 L 6.4375 0 L 6.4375 -51.84375 Z M 39.03125 -51.84375 "/></g></g></g><g fill="#044637" fill-opacity="1"><g transform="translate(590.227629, 56.994532)"><g><path d="M 20.578125 -51.84375 C 27.359375 -51.84375 32.347656 -50.71875 35.546875 -48.46875 C 38.742188 -46.226562 40.34375 -42.617188 40.34375 -37.640625 C 40.34375 -33.972656 39.253906 -30.957031 37.078125 -28.59375 C 34.910156 -26.226562 31.679688 -24.65625 27.390625 -23.875 L 42.09375 0 L 34.5625 0 L 20.5 -23.28125 L 12.59375 -23.28125 L 12.59375 0 L 6.4375 0 L 6.4375 -51.84375 Z M 19.921875 -29 C 24.753906 -29 28.265625 -29.664062 30.453125 -31 C 32.648438 -32.34375 33.75 -34.53125 33.75 -37.5625 C 33.75 -40.488281 32.757812 -42.644531 30.78125 -44.03125 C 28.8125 -45.425781 25.75 -46.125 21.59375 -46.125 L 12.59375 -46.125 L 12.59375 -29 Z M 19.921875 -29 "/></g></g></g></g></g></svg>